<svg xmlns="http://www.w3.org/2000/svg" xml:space="preserve" viewBox="0 0 900 600"><path d="M0 0h900v600H0z"/><path fill="#036A66" d="M0 600 900 0H0z"/><path d="M438.05 498.19c-35.059-1.992-65.25-11.51-93.453-29.46-11.997-7.637-22.521-16.087-33.63-27.003-31.416-30.87-50.044-65.918-56.904-107.067-1.778-10.666-2.373-17.882-2.56-31.063-.263-18.498.764-30.256 4.046-46.311 2.662-13.031 5.587-22.313 11.477-36.432 7.646-18.325 19.88-37.084 34.919-53.54 4.425-4.84 15.16-15.43 19.014-18.754 23.069-19.898 49.39-33.902 76.898-40.914 11.345-2.892 26.066-5.218 37.666-5.952 8.045-.51 29.078-.191 35.744.541 13.898 1.526 24.933 3.657 36.462 7.04 24.501 7.188 47.223 19.461 67.891 36.672 10.085 8.397 22.544 21.123 31.101 31.766 21.83 27.15 35.505 59.235 39.948 93.728 2.656 20.623 2.484 39.573-.553 60.678-1.787 12.426-5.494 26.592-10.284 39.301-5.815 15.428-15.358 32.574-25.665 46.111-19.918 26.163-44.835 47.23-71.79 60.703-17.425 8.708-33.263 13.922-52.225 17.192-9.317 1.607-14.662 2.198-25.15 2.781-8.429.469-14.492.464-22.951-.016zm24.051-41.22c12.37-.931 20.995-2.448 32.572-5.727 14.03-3.973 28.17-10.453 40.286-18.46 7.001-4.626 14.864-10.766 21.26-16.601 6.083-5.55 15.67-16.327 21.782-24.488 6.067-8.1 9.74-14.138 14.21-23.363 8.52-17.582 13.471-36.701 14.904-57.551.416-6.052.183-21.378-.415-27.245-3.74-36.747-17.871-66.794-43.998-93.558-23.052-23.614-49.475-38.314-80.068-44.546-16.55-3.371-43.38-3.73-60.938-.815-26.706 4.434-51.473 16.034-72.34 33.883-17.99 15.386-31.96 32.959-41.332 51.988-7.188 14.595-11.482 28.402-13.98 44.955-1.91 12.66-2.192 30.419-.693 43.55 2.811 24.61 10.903 46.974 23.97 66.243 13.335 19.665 28.943 35.311 47.384 47.498 10.13 6.695 21.616 12.322 33.132 16.234 13.526 4.593 25.497 6.974 40.764 8.107 5.316.395 17.587.34 23.5-.105zm-16.629-11.313c-8.125-.819-16.4-4.448-22.592-9.907-6.978-6.152-11.56-14.356-13.01-23.295-.588-3.622-.527-10.103.131-13.93 1.43-8.33 4.662-14.326 11.243-20.865 8.45-8.398 16.545-11.8 28.076-11.8 7.08 0 11.877 1.082 17.729 3.996 11.456 5.706 19.513 16.236 21.76 28.435.736 4 .66 11.854-.153 15.667-2.253 10.574-8.127 19.25-17.072 25.216-7.401 4.936-17.237 7.378-26.112 6.483zm74.773-58.567c-6.4-17.498-11.817-32.28-12.037-32.846l-.401-1.03h-32.375l-.008-.757c-.015-1.43 1.424-29.067 1.546-29.685l.122-.618h9.753c5.593 0 9.752-.106 9.752-.248 0-.136-3.876-10.754-8.613-23.596l-8.614-23.35 2.253-42.789c1.238-23.534 2.305-42.843 2.37-42.909.172-.171 77.546 202.076 77.43 202.394-.052.146-1.788 2.162-3.856 4.48-4.663 5.228-11.094 11.349-17.13 16.303-2.739 2.249-8.251 6.467-8.45 6.467-.058 0-5.342-14.317-11.742-31.816zm-155.72 28.897c-8.75-6.681-20.527-17.935-25.597-24.458l-.833-1.072 38.639-100.861c21.25-55.474 38.666-100.682 38.7-100.463.035.22 1.065 19.632 2.289 43.14l2.225 42.741-8.503 22.952c-4.676 12.623-8.59 23.23-8.695 23.57l-.194.618h9.914c7.996 0 9.914.07 9.914.36 0 .437 1.319 26.886 1.452 29.119l.094 1.58h-16.15c-10.126 0-16.21.1-16.313.267-.091.146-5.486 14.769-11.989 32.495-6.502 17.726-11.847 32.25-11.876 32.274-.03.026-1.414-.993-3.077-2.262zm72.67-62.842c-.041-.094-10.063-194.937-10.029-194.992.092-.146 8.024-.977 12.671-1.328 8.498-.64 18.053-.487 26.662.426 4.264.452 5.635.77 5.634 1.31 0 .253-2.226 43.741-4.947 96.639-2.721 52.898-4.947 96.59-4.947 97.096v.917h-12.506c-6.879 0-12.52-.03-12.537-.068z" style="fill:#fff;stroke-width:.274864"/></svg>