<svg xmlns="http://www.w3.org/2000/svg" width="4608" height="3072" viewBox="0 0 1219.2 812.8"><path d="M0 0v812.8h1219.2V0Z" style="fill:#006aa7;fill-opacity:1;stroke:none;stroke-width:33.8667;stroke-linecap:round;stroke-linejoin:round"/><path d="M609.6 203.2a203.2 203.2 0 0 0-199.135 163.214l45.707-45.707a25.4 25.4 0 0 1 11.387-6.574 25.4 25.4 0 0 1 24.535 6.574 25.4 25.4 0 0 1 0 35.92l-82.871 82.871a203.2 203.2 0 0 0 14.594 49.03L523.906 388.44a25.4 25.4 0 0 1 11.387-6.574 25.4 25.4 0 0 1 24.535 6.574 25.4 25.4 0 0 1 0 35.922L450.984 533.205a203.2 203.2 0 0 0 31.81 31.81L591.64 456.173a25.4 25.4 0 0 1 11.386-6.573 25.4 25.4 0 0 1 24.536 6.573 25.4 25.4 0 0 1 0 35.922l-100.09 100.09a203.2 203.2 0 0 0 49.03 14.594l82.872-82.872a25.4 25.4 0 0 1 11.387-6.574 25.4 25.4 0 0 1 24.533 6.574 25.4 25.4 0 0 1 0 35.922l-45.707 45.707A203.2 203.2 0 0 0 812.8 406.4a203.2 203.2 0 0 0-203.2-203.2z" style="stroke-width:33.8667;stroke-linecap:round;stroke-linejoin:round;fill:#ffe680;fill-opacity:1;stroke:none"/></svg>