<?xml version="1.0" standalone="no"?>
<!DOCTYPE svg PUBLIC "-//W3C//DTD SVG 20010904//EN"
 "http://www.w3.org/TR/2001/REC-SVG-20010904/DTD/svg10.dtd">
<svg version="1.0" xmlns="http://www.w3.org/2000/svg"
 width="1280.000000pt" height="853.000000pt" viewBox="0 0 1280.000000 853.000000"
 preserveAspectRatio="xMidYMid meet">

<g transform="translate(0.000000,853.000000) scale(0.100000,-0.100000)"
fill="#000000" stroke="none">
<path d="M11330 7555 l-1465 -974 -7 212 c-4 117 -9 223 -10 237 -3 26 -11 12
-250 -485 l-101 -211 -101 -67 -101 -67 -5 75 c-3 41 -11 80 -17 87 -7 6 -13
24 -13 39 0 16 -11 49 -25 75 -14 26 -25 52 -25 58 0 21 -75 105 -140 157 -70
56 -151 99 -188 99 -13 0 -40 7 -59 16 -81 39 -327 -17 -440 -99 -133 -98
-232 -292 -233 -453 0 -109 78 -291 162 -381 54 -56 157 -127 216 -147 l36
-13 -121 -81 -121 -81 -40 87 c-22 48 -129 269 -237 492 -314 645 -385 792
-385 797 0 2 -18 36 -41 74 -48 82 -66 86 -86 17 -7 -26 -55 -130 -106 -230
-51 -101 -100 -201 -109 -223 -9 -22 -26 -56 -37 -75 -11 -19 -87 -174 -167
-345 -81 -170 -223 -465 -316 -655 -93 -190 -199 -408 -234 -485 -36 -77 -72
-151 -80 -165 -8 -14 -17 -32 -20 -40 -3 -9 -13 -21 -23 -27 -16 -10 -25 4
-84 123 -37 73 -67 139 -67 145 0 6 -9 23 -20 39 -11 15 -56 108 -100 206 -45
99 -101 215 -124 259 -43 80 -392 791 -533 1085 -149 311 -216 441 -227 437
-6 -1 -38 -57 -71 -122 -78 -158 -666 -1375 -762 -1580 -110 -233 -227 -471
-265 -540 -35 -61 -68 -84 -68 -47 0 11 -7 25 -15 32 -8 7 -15 18 -15 25 0 7
-71 158 -159 336 -256 523 -495 1015 -551 1139 -30 63 -64 132 -77 154 -14 21
-26 45 -28 55 -2 9 -18 43 -37 76 -19 33 -79 154 -133 269 l-100 209 -3 -463
c-3 -522 -5 -501 73 -662 25 -50 45 -98 45 -105 0 -7 54 -142 120 -298 66
-157 120 -290 120 -295 0 -5 15 -42 34 -82 61 -131 78 -172 98 -233 11 -33 47
-116 79 -186 32 -69 59 -129 59 -134 0 -11 108 -278 126 -314 18 -34 18 -101
0 -127 -8 -11 -22 -58 -30 -105 -9 -46 -30 -127 -46 -179 -17 -52 -38 -129
-49 -170 -10 -41 -32 -124 -48 -185 -17 -60 -45 -164 -63 -230 -18 -66 -46
-165 -63 -220 -17 -55 -30 -114 -29 -131 1 -18 -5 -37 -13 -44 -8 -7 -15 -28
-15 -47 0 -19 -7 -47 -15 -62 -8 -16 -24 -71 -35 -122 -11 -52 -32 -129 -46
-172 -14 -42 -34 -114 -44 -160 -10 -45 -27 -110 -36 -144 l-18 -63 -1605
-1067 -1605 -1068 6399 -3 c3519 -1 6400 -1 6402 1 2 2 2 1921 1 4265 l-3
4261 -1465 -974z m-1488 -1395 c-6 -62 -17 -112 -32 -145 -12 -27 -54 -117
-92 -200 -38 -82 -81 -181 -95 -220 -14 -38 -41 -101 -60 -140 -19 -38 -49
-106 -68 -150 -18 -45 -54 -128 -80 -185 -26 -58 -69 -157 -95 -220 -26 -63
-89 -209 -140 -325 -142 -324 -148 -354 -100 -461 12 -25 29 -84 40 -132 10
-48 27 -110 38 -137 11 -28 30 -95 41 -149 12 -54 26 -107 32 -117 5 -11 18
-56 28 -102 19 -81 26 -105 62 -202 10 -27 25 -84 33 -125 8 -41 36 -145 61
-230 25 -85 53 -182 61 -215 9 -33 22 -80 30 -105 8 -25 23 -83 33 -130 10
-47 33 -127 50 -177 17 -50 63 -203 101 -340 38 -136 89 -317 113 -401 l45
-152 -266 2 -266 3 -18 60 c-11 33 -23 91 -29 129 -5 38 -16 83 -23 100 -8 17
-17 49 -20 72 -3 22 -12 54 -21 71 -8 17 -19 64 -25 104 -5 41 -16 91 -25 111
-8 21 -20 73 -26 115 -6 43 -17 92 -24 108 -7 17 -16 48 -19 71 -3 22 -12 54
-21 70 -8 17 -20 65 -25 108 -6 42 -17 94 -25 116 -8 21 -27 101 -44 178 -17
76 -37 154 -45 174 -9 19 -22 73 -30 119 -8 46 -23 109 -34 139 -10 30 -22 81
-26 113 -4 32 -14 74 -22 92 -8 19 -14 47 -14 63 0 15 -7 37 -15 48 -8 10 -15
29 -15 42 0 36 -28 82 -50 82 -26 0 -54 -43 -45 -69 4 -12 0 -30 -9 -43 -9
-12 -16 -37 -16 -56 0 -18 -7 -46 -15 -61 -8 -16 -17 -48 -20 -72 -10 -72 -27
-140 -41 -168 -8 -14 -14 -40 -14 -56 0 -17 -6 -39 -14 -50 -8 -11 -16 -43
-19 -70 -8 -76 -23 -146 -41 -190 -8 -22 -15 -53 -16 -70 0 -36 -16 -99 -36
-142 -8 -17 -14 -44 -14 -60 0 -16 -6 -37 -14 -48 -8 -11 -16 -43 -19 -70 -8
-73 -24 -151 -37 -174 -6 -12 -20 -71 -31 -133 -11 -62 -30 -140 -43 -174 -14
-33 -29 -94 -35 -136 -6 -42 -19 -98 -29 -125 -11 -26 -27 -93 -36 -148 -10
-55 -23 -117 -28 -137 l-11 -38 -533 0 c-322 0 -543 4 -558 10 -14 5 -26 16
-26 23 0 8 -7 28 -16 45 -8 17 -21 69 -28 114 -8 46 -21 101 -29 123 -8 22
-20 74 -26 116 -6 41 -17 89 -26 105 -8 16 -15 44 -15 62 0 18 -7 43 -15 55
-8 13 -19 56 -25 97 -5 41 -23 122 -39 180 -16 58 -35 138 -41 179 -7 41 -23
104 -35 140 -13 36 -26 89 -30 116 -3 28 -19 93 -35 145 -16 52 -46 165 -66
250 -81 348 -126 525 -136 537 -6 7 -19 13 -28 13 -14 0 -25 -21 -49 -92 -16
-51 -35 -120 -41 -153 -5 -33 -15 -76 -20 -95 -6 -19 -31 -127 -56 -240 -25
-113 -54 -225 -65 -249 -10 -24 -19 -60 -19 -80 0 -20 -11 -71 -25 -114 -14
-43 -25 -93 -25 -112 0 -19 -4 -37 -10 -40 -5 -3 -10 -28 -10 -54 0 -31 -5
-53 -15 -61 -8 -7 -15 -29 -15 -49 0 -20 -7 -49 -15 -65 -9 -16 -22 -69 -31
-118 -8 -48 -21 -103 -29 -121 -7 -17 -16 -54 -20 -82 -9 -73 -33 -171 -60
-245 -12 -36 -26 -85 -29 -110 -4 -25 -17 -87 -28 -137 l-22 -93 -557 0 -557
0 -7 43 c-11 74 -27 137 -36 143 -5 3 -9 21 -9 40 0 19 -9 54 -19 77 -11 23
-24 77 -30 120 -6 43 -16 88 -23 100 -11 21 -20 63 -36 175 -5 28 -13 57 -20
64 -7 7 -12 27 -12 46 0 18 -9 53 -20 77 -11 24 -25 79 -31 122 -6 43 -24 117
-40 166 -17 48 -37 128 -45 178 -8 50 -19 100 -26 112 -9 17 -7 24 13 39 13
10 29 22 36 28 7 5 15 10 19 10 3 0 23 14 44 30 21 17 42 30 48 30 6 0 12 3
14 8 4 10 146 102 157 102 5 0 11 7 15 15 3 8 12 15 20 15 8 0 16 6 19 13 2 6
14 -31 26 -82 12 -52 28 -106 36 -120 7 -15 20 -62 29 -105 9 -44 21 -85 26
-91 6 -7 17 -47 25 -89 8 -42 22 -90 30 -106 8 -16 15 -38 15 -50 0 -12 7 -35
16 -51 8 -17 21 -66 29 -109 8 -44 19 -88 24 -99 6 -11 20 -57 31 -104 10 -46
30 -113 43 -148 13 -35 27 -82 31 -104 4 -22 11 -44 16 -50 4 -5 10 -29 14
-53 3 -24 20 -85 36 -136 17 -51 34 -116 40 -144 21 -114 76 -136 100 -40 5
18 15 53 23 78 8 25 20 74 27 109 6 36 18 74 26 85 8 11 14 33 14 49 0 15 7
38 15 50 8 13 19 55 25 96 5 40 19 92 30 116 11 24 20 55 20 68 0 14 7 30 15
37 8 7 15 29 15 50 0 20 9 63 20 94 11 32 26 90 34 129 9 40 25 99 36 132 12
33 30 102 41 153 11 51 29 115 40 144 11 28 26 81 34 117 7 36 25 102 39 146
14 44 26 96 26 115 0 19 7 44 15 54 8 11 15 31 15 46 0 14 7 35 15 48 9 12 23
61 31 109 8 47 22 99 30 114 8 16 14 39 14 52 0 13 7 32 15 43 8 10 14 33 14
49 0 17 15 78 33 137 26 87 37 109 58 120 23 12 193 123 215 141 27 22 148 97
156 97 5 0 9 5 9 10 0 6 8 14 18 17 9 4 40 24 69 45 29 21 55 38 59 38 3 0 23
14 44 30 21 17 40 30 43 30 9 0 232 152 239 164 19 28 5 -11 -32 -88 -22 -47
-42 -98 -46 -113 -4 -15 -15 -44 -26 -63 -25 -48 -23 -121 7 -205 13 -38 25
-81 25 -95 0 -14 9 -45 20 -69 11 -24 20 -56 20 -73 0 -16 7 -43 16 -59 8 -17
22 -65 30 -106 8 -42 19 -82 25 -90 6 -7 17 -48 25 -90 7 -43 31 -134 53 -203
46 -143 89 -304 100 -370 4 -25 17 -72 29 -105 11 -33 42 -136 67 -230 26 -93
53 -192 61 -220 7 -27 36 -133 64 -235 48 -179 71 -262 125 -447 14 -49 36
-130 49 -181 23 -91 46 -132 73 -132 7 0 17 10 22 23 24 64 46 140 62 212 39
176 74 310 94 365 9 25 26 87 36 138 10 52 26 103 34 115 8 12 15 37 15 57 0
20 7 45 15 57 9 13 13 32 10 45 -4 14 3 44 15 73 12 28 35 104 50 170 16 67
36 137 44 156 8 20 18 60 21 90 4 30 22 99 40 154 18 55 36 118 40 140 4 22
20 83 36 137 16 53 29 110 29 127 0 17 9 48 20 68 11 21 20 48 20 61 0 12 6
33 14 45 8 12 19 55 25 94 6 40 20 96 31 125 10 29 28 91 39 138 11 47 29 124
42 172 22 86 22 89 4 130 -9 24 -26 66 -35 93 -10 28 -48 118 -84 200 -36 83
-66 156 -66 164 0 8 -11 33 -24 55 -13 23 -29 59 -36 81 -21 67 -80 205 -121
287 -39 77 -47 104 -30 94 5 -4 11 -3 13 2 3 7 152 111 196 137 9 5 40 27 69
47 29 21 55 38 59 38 4 0 15 7 25 16 16 14 18 14 24 -6 4 -12 40 -90 80 -174
40 -83 85 -180 99 -216 15 -35 38 -81 52 -101 13 -20 33 -59 43 -86 20 -55 66
-126 100 -158 22 -19 22 -19 46 10 13 17 36 55 51 85 35 73 51 104 85 170 16
30 65 134 110 230 141 303 168 359 290 606 65 133 119 248 119 256 0 8 17 43
39 79 21 35 41 73 45 84 3 11 34 37 69 58 90 54 101 61 107 67 13 15 149 100
159 100 6 0 12 8 13 18 7 56 7 -299 0 -378z m-594 -62 c-25 -137 -222 -333
-375 -373 -70 -18 -308 -21 -258 -3 17 6 32 14 35 17 7 9 400 271 406 271 3 0
10 5 17 11 9 7 172 122 183 128 1 1 -3 -23 -8 -51z m-3928 -40 c11 -18 20 -41
20 -50 0 -9 16 -46 35 -82 19 -37 35 -71 35 -78 0 -6 23 -62 50 -124 28 -62
50 -118 50 -125 0 -7 41 -101 90 -210 50 -108 90 -202 90 -209 0 -7 41 -106
91 -219 51 -113 109 -251 131 -306 21 -55 64 -156 95 -223 30 -68 57 -141 60
-162 4 -25 -4 -79 -21 -147 l-27 -108 -616 -410 c-339 -225 -620 -410 -626
-410 -6 0 -23 47 -38 105 -15 58 -39 149 -53 204 -14 54 -26 105 -26 114 0 8
-8 33 -19 56 -10 23 -24 61 -31 86 -59 219 -112 423 -120 463 -10 47 -8 52 66
215 42 92 89 201 104 242 15 41 44 111 65 155 20 44 58 132 85 195 75 180 137
323 206 477 35 79 75 171 88 205 13 35 53 130 90 212 79 180 90 192 126 134z
m2285 20 c31 -94 83 -226 109 -278 18 -36 36 -78 40 -95 4 -16 40 -106 81
-200 40 -93 75 -182 79 -196 5 -25 -17 -41 -484 -352 -552 -369 -508 -353
-413 -142 30 66 68 155 84 197 16 43 65 158 109 257 44 99 80 184 80 189 0 8
40 102 170 402 32 74 62 147 65 162 12 49 69 89 80 56z m-3452 -2385 c8 -10
18 -36 22 -58 4 -22 13 -53 21 -70 8 -16 25 -82 39 -145 46 -222 75 -346 96
-415 12 -39 20 -79 18 -88 -5 -20 -482 -342 -487 -328 -2 5 4 35 12 68 8 32
27 116 42 188 14 71 32 142 40 157 8 15 14 43 14 62 0 20 7 50 15 68 18 40 81
304 91 380 3 29 13 63 20 75 8 12 14 35 14 50 0 36 10 73 20 73 4 0 14 -8 23
-17z m-352 -1282 c-17 -66 -31 -131 -31 -143 0 -13 -11 -54 -24 -93 -13 -38
-32 -108 -42 -155 -9 -47 -28 -128 -42 -180 -14 -52 -28 -120 -32 -152 -4 -31
-15 -67 -24 -79 -9 -13 -16 -35 -16 -50 0 -15 -9 -57 -20 -93 l-21 -66 -263 0
-264 0 9 43 c5 23 16 59 24 80 9 21 19 66 24 101 5 34 18 84 30 109 12 25 21
60 21 77 0 17 6 43 14 58 7 15 26 80 41 145 15 65 29 116 32 113 3 -3 29 13
59 35 29 21 56 39 60 39 3 0 23 14 44 30 21 17 40 30 44 30 5 0 95 59 106 70
3 3 12 10 21 15 9 6 29 19 45 29 16 11 73 49 127 84 53 36 97 70 97 75 0 6 3
8 6 4 3 -3 -8 -60 -25 -126z"/>
<path d="M4030 6804 c-82 -18 -190 -69 -256 -122 -63 -50 -140 -163 -167 -245
-28 -87 -28 -276 0 -363 56 -172 252 -346 420 -373 71 -11 230 1 309 24 235
68 416 387 360 630 -44 185 -145 319 -296 393 -145 71 -236 85 -370 56z"/>
<path d="M6325 6805 c-224 -51 -351 -166 -431 -390 -45 -126 -46 -182 -9 -299
47 -147 128 -259 243 -333 122 -79 205 -98 362 -83 83 8 119 17 170 41 36 18
76 37 89 43 30 13 130 128 165 189 35 59 74 176 87 259 9 60 8 72 -10 110 -11
24 -22 59 -26 79 -10 67 -66 161 -134 229 -133 132 -337 194 -506 155z"/>
</g>
</svg>
