<svg xmlns="http://www.w3.org/2000/svg" width="1282.857" height="860" viewBox="0 0 339.423 227.542"><defs><filter id="a" width="1" height="1" x="0" y="0" style="color-interpolation-filters:sRGB"><feGaussianBlur stdDeviation=".002"/></filter></defs><g style="filter:url(#a)" transform="translate(.756 -.756)"><path d="M-.756.756h339.423v227.542H-.756z" style="fill:#fff;stroke-width:.520417"/><path d="M-.756 77.335h339.423v151H-.756z" style="fill:#ffda2c;fill-opacity:1;stroke-width:.35632"/><path d="M-.756 153.335h339.801v75H-.756z" style="fill:#3c3b6e;fill-opacity:1;stroke-width:.259997"/><path d="m206.708 106.038-23.327 16.958 8.918 27.426-23.337-16.944-23.327 16.956 8.903-27.43-23.335-16.946 28.84-.008 8.905-27.43 8.92 27.425zm105.109 0-23.326 16.958 8.917 27.426-23.336-16.944-23.328 16.956 8.904-27.43-23.335-16.946 28.839-.008 8.906-27.43 8.92 27.425zm-210.219 0-23.327 16.958 8.918 27.426-23.336-16.944-23.328 16.956 8.904-27.43-23.335-16.946 28.839-.008 8.906-27.43 8.92 27.425z" style="opacity:.985;fill:#3c3b6e;fill-opacity:1;stroke:none;stroke-width:.214832"/></g></svg>