<svg xmlns="http://www.w3.org/2000/svg" width="1280" height="853" viewBox="0 0 338.667 225.69"><path d="M-27.796-13.363h395.024v255.51H-27.796z" style="fill:#f01;fill-opacity:1;stroke:none;stroke-width:.264583"/><path d="M153.264 217.464c-.395-.945-.717-2.059-.717-2.476 0-1.037-.95-.96-1.33.108-.594 1.663-1.221 2.163-1.954 1.554-.5-.414-.677-2.03-.677-6.169 0-5.03-.128-5.847-1.238-7.935-.681-1.28-1.242-2.685-1.246-3.121-.005-.609-.103-.643-.417-.148-.225.355-.611.59-.859.52-.247-.068-1.437.798-2.644 1.924-1.663 1.552-2.983 2.256-5.447 2.903-1.788.47-3.698 1.093-4.242 1.386-.545.293-3.054.76-5.575 1.038-4.2.464-4.608.433-4.861-.366-.41-1.288 1.38-3.476 4.897-5.985 1.713-1.223 3.42-2.59 3.792-3.04.373-.448 1.452-1.14 2.4-1.535.946-.395 1.973-1.063 2.28-1.484.308-.42 2.225-1.59 4.26-2.598l3.7-1.833.152-2.372.152-2.373-1.998 1.262c-1.517.957-2.657 1.262-4.723 1.262-2.51 0-2.749-.1-3.043-1.27-.243-.969-.005-1.594.99-2.635l1.307-1.365-1.246-.667c-.88-.472-1.246-1.078-1.246-2.07 0-.9-.259-1.4-.725-1.4-.399 0-1.255-.781-1.903-1.735-1.1-1.62-1.227-1.677-1.917-.866-.406.477-1.224 1.679-1.818 2.671-1.25 2.088-3.971 3.57-6.633 3.613-1.02.017-1.856.236-1.857.487 0 .252-.574-.08-1.272-.736-1.069-1.004-1.22-1.471-.946-2.934.179-.956.538-1.997.798-2.312.334-.405-.047-.745-1.295-1.157-2.329-.768-4.714-2.814-4.714-4.044 0-1.195.665-1.848 3.195-3.139l1.941-.99-1.696-.247c-2.31-.337-3.465-2.527-2.356-4.46.684-1.191.652-1.417-.42-2.98-.77-1.127-1.159-2.402-1.159-3.811v-2.119h-3.036c-3.266 0-6.372-1.37-6.372-2.81 0-1.201 1.577-3.535 2.562-3.792 1.36-.356 1.12-1.043-1.324-3.796-1.714-1.93-2.228-2.898-2.228-4.196 0-1.993.34-2.267 2.942-2.371l1.962-.078-.28-2.05c-.324-2.354.44-4.179 1.747-4.179.489 0 1.933.529 3.21 1.175 2.564 1.299 3.328.957 1.958-.875-1.494-1.999-2.172-2.2-4.859-1.446-4.028 1.131-7.091 1.352-8.57.618-2.807-1.394-4.547-2.985-4.547-4.157 0-1.113 2.464-3.732 3.51-3.732.256 0 .11-.836-.322-1.857-.792-1.87-1.053-6.104-.437-7.1.21-.342 1.341-.427 3.123-.237 2.6.279 2.854.211 3.707-.982.503-.704.837-1.323.742-1.374-.094-.052-1.732-.612-3.638-1.246-3.616-1.204-6.685-3.544-6.685-5.098 0-.475-.222-1.001-.495-1.17-.915-.565-.506-2.198.759-3.027.948-.62 1.915-.753 3.958-.543l2.704.28-1.664-1.574c-1.385-1.309-1.767-2.155-2.273-5.039-.334-1.906-.53-4.357-.436-5.447.146-1.699.35-2.001 1.43-2.127.838-.098 2.033.443 3.56 1.61 1.266.965 2.526 1.755 2.801 1.755.275 0 .705.366.955.812.495.886 1.575.519 1.575-.536 0-.36.915-1.482 2.033-2.493 1.472-1.33 2.183-1.687 2.575-1.295.298.297.72.541.938.541.76 0 .387-1.044-.796-2.227-.928-.928-1.557-1.138-2.847-.95-1.967.288-2.467-.035-3.191-2.065-.435-1.22-.385-1.87.249-3.219 1.117-2.374 2.845-2.501 4.774-.35 1.437 1.602 1.467 1.61 1.629.47.25-1.767-1.586-3.385-4.289-3.78-3.826-.559-9.493-4.83-9.493-7.156 0-1.585 1.306-2.105 5.076-2.019l2.352.053v-2.486c0-3.266 2.007-7.961 3.403-7.961.54 0 1.534.706 2.21 1.569l1.227 1.569 1.824-1.934c1.777-1.884 1.843-1.908 2.57-.95.41.541.97 1.596 1.242 2.345.585 1.61 1.683 1.782 2.142.335.21-.664-.148-1.933-1.016-3.59-3.854-7.362-3.834-7.303-3.569-10.2.351-3.836 1.72-6.447 3.388-6.462 1.692-.017 5.394 4.748 5.394 6.94 0 1.492.301 1.699 1.693 1.165 1.122-.43.968-1.334-.454-2.67-1.713-1.61-1.683-4.036.066-5.412 1.532-1.204 3.277-1.326 4.138-.288.336.405.82.608 1.074.451.534-.33.025-4.667-.632-5.373-1.222-1.314.322-7.995 2.357-10.202.642-.696 1.166-1.518 1.166-1.828 0-.757 1.902-.35 2.995.638.812.735 1.033.692 2.946-.573 3.031-2.007 3.677-1.397 3.858 3.645.099 2.758-.053 4.185-.501 4.652-1.076 1.125-1.937 3.396-1.288 3.396.746 0 3.874-2.403 3.874-2.976 0-.247.613-1.48 1.362-2.74 1.045-1.76 2.052-2.643 4.332-3.804 4.025-2.05 5.367-2.374 7.445-1.8 2.353.65 2.587 1.542 1.023 3.905l-1.302 1.969h2.257c1.747 0 2.538.28 3.493 1.234.992.993 1.134 1.423.721 2.194-.606 1.132-3.119 3.009-4.028 3.009-.35 0 .074.695.943 1.544 1.634 1.598 2.017 3.267.985 4.299-.948.948-9.979.783-11.933-.218-.871-.447-1.696-.965-1.832-1.151-.136-.187-.965-.757-1.843-1.268-1.525-.887-1.673-.89-3.39-.071l-1.795.856 1.286 1.011c.934.735 1.286 1.472 1.286 2.697 0 2.256-1.72 3.442-4.376 3.017-1.687-.27-2.058-.12-3.557 1.426-1.098 1.133-1.97 1.632-2.534 1.453-.565-.18-1.065.107-1.454.833-.326.609-1.008 1.553-1.515 2.098-.943 1.012-1.263 2.785-.503 2.785.232 0 1.513-1.101 2.847-2.448 2.828-2.853 7.532-5.474 9.822-5.474.88 0 2.92.42 4.53.932 1.611.513 4.332 1.068 6.048 1.233 4.204.404 6.605 2.226 5.778 4.382-.287.746-2.3 1.944-3.698 2.198a129.4 129.4 0 0 0-2.97.625c-1.226.27-3.107.499-4.18.511-1.766.017-1.864.086-1.034.693 1.384 1.012.618 2.18-2.324 3.544-1.932.894-3.115 1.137-4.589.94-1.582-.212-1.81-.154-1.12.285 1.118.71 1.092 1.084-.175 2.53-.574.655-1.226 1.662-1.449 2.24-.296.765-1.286 1.287-3.661 1.93-1.79.485-3.255.97-3.255 1.08 0 .109.362.899.805 1.755.787 1.523.775 1.582-.543 2.715-1.092.94-1.234 1.295-.75 1.878.572.689.474 2.798-.23 4.942-.3.914-.136.977 2.12.823 2.127-.147 2.655.017 4.062 1.277l1.617 1.445-1.802 1.995-1.802 1.995 1.547.444c1.74.499 2.474 1.88 1.867 3.512-.496 1.33-4.232 3.783-5.02 3.296-.311-.192-1.801-.441-3.31-.553-1.51-.112-3.588-.494-4.62-.85-1.825-.628-1.905-.606-2.918.817l-1.041 1.463 1.666-.289c1.205-.209 1.994-.035 2.847.638 1.055.828 1.133 1.13.73 2.855-.296 1.263-.839 2.1-1.576 2.424-.8.352-1.048.78-.86 1.485.146.545.268 1.423.271 1.95.005.82.235.728 1.558-.625.853-.873 2.023-1.68 2.6-1.795 5.268-1.047 7.806-.325 7.602 2.164-.142 1.743-2.897 4.89-4.889 5.584-1.158.404-1.335.642-.88 1.19 1.315 1.585-2.387 6.082-5.612 6.819-.75.17-1.975.452-2.724.624-1.932.446-2.6 1.105-2.6 2.57 0 .992.133 1.144.595.681.327-.326 1.212-.594 1.968-.594 1.818 0 3.258 2.5 2.454 4.264-.486 1.068-1.18 1.398-3.759 1.786-1.209.182-1.72 2.363-1.26 5.38.319 2.098.354 2.136.86.924.29-.695 1.832-2.254 3.425-3.465 1.594-1.21 3.01-2.35 3.146-2.53.528-.693 2.524 1.585 2.716 3.1.26 2.052-.831 4.643-2.304 5.472-1.125.634-1.103.658.825.919 1.778.24 2.123.102 3.378-1.354 1.679-1.948 2.591-2.035 3.9-.371 2.525 3.21 3.316 5.487 3.146 9.05-.09 1.883-.4 3.866-.69 4.405-.55 1.029-.593 3.19-.058 2.858.171-.105.807.154 1.412.578.892.625 1.038 1.065.777 2.331-.177.859-.663 1.829-1.08 2.155-1.18.927-.378 3.875 1.636 6.007l1.716 1.817-1.003-2.723c-1.292-3.507-1.27-6.029.08-9.017 1.343-2.97 3.042-3.668 4.446-1.827.499.653 1.092 1.418 1.32 1.698.555.685.323 6.285-.31 7.466-.563 1.053-.784 2.968-.673 5.841.07 1.84.118 1.895.98 1.115.498-.451 1.709-.82 2.69-.82 1.411 0 1.861.233 2.153 1.114l.368 1.114.3-1.208c.216-.875 1.232-1.682 3.673-2.917 3.353-1.698 3.384-1.703 5.133-.868.969.461 2.187 1.381 2.708 2.043l.947 1.205 1.778-1.727c2.479-2.407 3.5-2.434 6.836-.182 2.28 1.538 3.05 3.053 2.473 4.868-.308.97-.197 1.017 1.688.715 1.408-.225 2.018-.145 2.018.265 0 .324.223.45.495.282.273-.168.496-.834.496-1.48 0-.822-.32-1.222-1.065-1.332-1.604-.24-2.868-2.331-2.555-4.231.22-1.338.528-1.647 1.898-1.904 2.645-.496 3.612.089 4.405 2.666.518 1.684.723 1.974.748 1.057.017-.694.28-1.508.58-1.807.52-.52.058-2.838-1.02-5.1-.194-.409-.403-2.191-.464-3.961-.088-2.58.148-3.782 1.189-6.056.715-1.561 1.522-2.976 1.794-3.144.785-.485 2.387 1.283 3.495 3.858.561 1.304 1.165 2.37 1.343 2.37.178 0 .236.921.129 2.047-.136 1.42-.024 1.941.358 1.704.764-.472.696-3.812-.101-5.002-1.859-2.77-.382-9.79 2.526-12.009l1.627-1.24 1.222 1.147c.672.631 1.221 1.416 1.221 1.743 0 1.218 1.293 1.774 2.668 1.148 1.586-.723 1.671-1.73.187-2.2-2.138-.679-4.835-3.27-4.835-4.644 0-1.56 2.11-2.994 4.409-2.994 1.853 0 1.913-.463.309-2.37-2.204-2.619-2.968-6.159-1.455-6.74.433-.166.99-.176 1.238-.024.248.154.693.129.99-.052.305-.19-.564-.963-2.002-1.784-4.354-2.487-4.389-5.02-.087-6.406 2.624-.845 2.704-.945 1.685-2.11-.511-.584-1.34-1.953-1.843-3.042a174.75 174.75 0 0 0-1.339-2.845c-.303-.616-.126-1.162.615-1.903.831-.831 1.391-.973 2.797-.71.967.182 2.076.648 2.465 1.037.389.389.935.707 1.214.707.279 0 1.142.453 1.92 1.006l1.412 1.006.584-1.13c.773-1.494 2.969-3.318 4.022-3.34.962-.024 3.367 2.898 3.367 4.085 0 .435-.204.917-.454 1.071-.273.168-.255 1.002.047 2.088.57 2.066.413 3.16-1.074 7.447-.703 2.025-.916 3.342-.625 3.862.363.648.581.5 1.233-.845.436-.898 1.05-2.605 1.365-3.794.376-1.416.902-2.246 1.527-2.41 1.17-.305 1.171-.227-.035-2.48-.544-1.016-.99-2.716-.99-3.777 0-2.345-1.377-4.702-3.465-5.93-1.424-.84-1.624-.85-2.425-.125-2.774 2.51-6.34-1.234-4.482-4.706.502-.937.397-.961-2.793-.634-2.925.3-3.565.202-5.456-.83-3.664-2.002-4-5.038-.709-6.401 1.786-.74 1.81-.857.473-2.28-1.074-1.142-2.035-4.33-1.628-5.392.31-.808 3.634-1.884 5.147-1.668 1.108.159 1.188.025 1.085-1.809-.138-2.467.888-3.957 2.444-3.55.611.16 1.392.058 1.734-.227.874-.725 1.657-.098 1.657 1.327 0 1.13 1.74 3.688 2.507 3.688.192 0 .462-.597.602-1.327.193-1.009-.09-1.673-1.18-2.762-.788-.788-1.434-1.595-1.434-1.791 0-.652-3.25-1.547-5.73-1.578-3.232-.04-6.715-1.715-8.626-4.15-2.068-2.635-1.825-3.798.987-4.72 1.226-.402 2.3-.77 2.386-.818.524-.29-1.312-2.168-2.134-2.18-2.467-.042-4.214-3.874-2.53-5.557 1.132-1.133.982-1.515-.453-1.155-1.197.3-2.369 1.089-4.229 2.843-.501.473-1.676.818-2.773.815-1.047-.002-3.037.156-4.423.35-2.325.327-2.598.256-3.525-.923-.91-1.156-1.238-1.25-3.457-.987-3.511.415-5.718-.762-5.506-2.938.102-1.043.53-1.757 1.276-2.127 1.773-.878 1.79-1.076.161-1.918-3.172-1.64-1.162-4.027 4.44-5.27 1.788-.397 2.96-.926 3.048-1.375.204-1.061 4.98-1.265 6.858-.294 1.427.738 1.453.728 1.453-.535 0-1.574 1.03-2.682 2.564-2.758.858-.041.926-.116.271-.286-.483-.126-1.852.242-3.042.819-1.72.833-2.86 1.01-5.559.869-1.866-.098-3.951-.491-4.632-.875-.68-.383-1.901-.924-2.713-1.202-2.697-.924-2.855-4.714-.197-4.714 1.197 0 1.174-.188-.284-2.333-.875-1.289-1.087-2.02-.762-2.63.731-1.365 3.239-2.133 5.927-1.815l2.432.288-.29-2.573c-.158-1.415-.477-2.814-.707-3.109-.24-.308-.138-.92.243-1.44.637-.872.747-.865 2.928.191 1.393.675 3.329 2.342 5.024 4.328 2.52 2.953 2.758 3.436 2.758 5.623 0 2.063.21 2.568 1.524 3.674 2.527 2.126 2.78 1.83 3.25-3.794.386-4.605.52-5.089 1.458-5.222.696-.1 1.779.62 3.326 2.212l2.294 2.36 1.472-1.41c1.562-1.497 2.82-1.471 3.328.069.16.482.599 1.577.977 2.432.532 1.205.574 2.148.187 4.188-.455 2.402-2.25 5.882-3.037 5.89-.527.005-1.386 2.93-.941 3.205.225.14.522-.18.66-.709.313-1.195 2.525-1.802 4.045-1.109 1.256.572 1.829 2.768 1.18 4.522-.317.855-.156 1.148.836 1.525 1.458.555 1.665 2.666.485 4.948-1.274 2.464-1.883 6.221-1.212 7.475.52.971.643 1.006 1.042.292.249-.445.587-2.319.752-4.164.477-5.355 2.59-8.608 7.046-10.846.992-.497 2.523 1.582 2.523 3.425 0 2.43-1.48 6.54-3.348 9.297-2.993 4.417-3.086 4.647-3.022 7.519.04 1.89.267 2.847.672 2.847.469 0 .49-.522.09-2.266-.442-1.935-.378-2.532.44-4.085 1.693-3.21 2.823-4.161 4.286-3.605.702.267 1.628.987 2.057 1.6l.78 1.113 1.143-1.33c1.85-2.153 4.138-1.465 5.047 1.517.387 1.271.854 1.372 2.29.495 1.47-.897 2.52.588 1.914 2.704-.24.838-.33 1.695-.2 1.906.131.21-.016 1.571-.323 3.024-.43 2.027-1.011 3.073-2.5 4.498-1.067 1.02-1.708 1.856-1.424 1.856 1.13 0 2.497 2.023 2.497 3.695 0 2.088-1.569 3.733-3.56 3.733h-1.392l1.023 1.022c.8.802.947 1.364.676 2.6-.19.867-.742 1.854-1.225 2.192-.813.57-.752.74.81 2.302.928.928 1.687 2.028 1.687 2.443 0 .63.512.555 3.065-.445 1.685-.661 3.218-1.202 3.406-1.202.403 0 1.352 2.304 1.528 3.714.184 1.47-.508 3.719-1.629 5.293l-.99 1.392h1.424c.783 0 1.811.283 2.284.628.794.581.801.769.092 2.467-1.61 3.854-6.04 6.808-10.21 6.808-2.063 0-2.99.233-3.598.905-1.148 1.27-1.06 1.371 1.038 1.18 2.248-.207 3.342 1.106 2.838 3.404-.316 1.435-.844 1.727-3.705 2.047-.836.094-1.287.486-1.39 1.21l-.153 1.07 2.876-1.183c3.756-1.544 7.867-1.651 8.323-.216.439 1.383-.105 2.91-1.81 5.08-1.626 2.07-1.554 2.574.438 3.075 2.446.613 2.71 1.956.822 4.198-2.634 3.13-8.018 4.374-11.905 2.75-2.209-.923-3.353-.94-4.08-.063-.444.533-.29.86.713 1.518 1.06.694 1.224 1.087.96 2.29-.2.908-.118 1.454.215 1.454.294 0 .535-.223.535-.496 0-.272.612-.503 1.361-.512.75-.012 2.253-.447 3.343-.973 3.414-1.649 3.99-1.158 2.904 2.476-.366 1.225-.668 2.284-.67 2.352-.003.068.628.124 1.403.124 2.1 0 4.533 1.376 4.533 2.564 0 .553-.658 1.98-1.462 3.17-1.276 1.893-1.37 2.257-.742 2.884 1.2 1.201.816 2.578-1.139 4.073-1.684 1.289-2.176 1.41-5.297 1.3-3.192-.112-6.164-.906-9.186-2.457-1.653-.848-1.98-.806-1.98.255 0 .492-.327 1.328-.727 1.856-1.437 1.9-.99 2.363 1.944 2.018 6.08-.714 9.072 3.866 4.179 6.397-1.442.746-1.58.724-3.171-.49-1.649-1.257-4.206-1.728-4.206-.774 0 .272.3.495.666.495 2.118 0 3.075 4.101 1.327 5.683-.807.73-1.217.79-2.352.339-.756-.3-1.82-.497-2.364-.437-.57.063-.938-.153-.867-.51.202-1.011-1.498-.706-3.449.62-1.002.68-2.302 1.237-2.89 1.237-.588 0-1.731.557-2.54 1.238-1.762 1.483-.955 1.578 2.001.237 1.187-.539 3-.98 4.028-.98 4.557 0 10.896 3.327 10.896 5.719 0 1.56-1.143 2.099-5.25 2.47-4.793.435-4.82.458-2.895 2.383 1.896 1.896 2.144 3.1.842 4.089-2.31 1.753-9.872-.19-11.818-3.037-1.726-2.524-3.573-4.196-4.635-4.196-1.452 0-5.553 1.922-5.226 2.45.145.235.724.307 1.287.16 1.198-.313 3.317.705 3.958 1.902.651 1.217-.344 3.641-1.819 4.43-1.497.802-2.46.337-3.905-1.883-.545-.837-1.548-1.634-2.229-1.77-1.49-.3-1.872-.03-1.08.76.322.322.585 1.113.585 1.757 0 2.3 2.228 5.034 4.12 5.057.975.012 3.167 1.971 10.813 9.666 5.417 5.453 6.648 7.188 5.74 8.097-.961.96-3.59.638-7.472-.917-2.04-.817-4.007-1.49-4.37-1.494-.364-.005-2.1-1.45-3.86-3.213-2.81-2.815-6.444-5.196-7.93-5.196-.27 0-.83.806-1.242 1.79-.604 1.447-.66 2.565-.288 5.819.253 2.215.612 4.42.797 4.9.185.48.187 1.872.005 3.094-.405 2.704-1.78 3.073-2.748.737-.8-1.93-1.384-1.886-1.578.12-.244 2.525-1.6 2.351-3.363-.43-1.438-2.267-1.496-2.58-1.496-7.955 0-5.19.108-5.825 1.485-8.74.817-1.73 1.485-3.28 1.485-3.445 0-.166-.781-.448-1.737-.627-.955-.18-2.31-.776-3.01-1.327l-1.271-1-1.483 1.799c-1.848 2.241-3.99 2.434-6.162.554-.791-.685-1.661-1.177-1.934-1.093-.272.084-1.572.453-2.89.82-1.316.366-2.508.967-2.65 1.333-.14.367.533 2.19 1.496 4.051 1.617 3.125 1.713 3.551 1.258 5.576-.27 1.206-.447 3.196-.392 4.421.059 1.226-.07 3.79-.278 5.695-.54 4.957-1.701 6.11-3.006 2.987zm1.69-44.852c-1.16-1.375-2.16-2.844-2.22-3.264-.062-.42-.263-.91-.446-1.09-.494-.484-.1 2.544.425 3.264.248.34.296.62.107.62-.19 0-.013.334.399.742.409.409.954.743 1.213.743.258 0 .747.334 1.086.743.34.408.825.742 1.08.742.255 0-.485-1.125-1.644-2.5zm67.897-70.565c-.361-1.508-.52-3.992-.37-5.844.224-2.795.503-3.52 2.11-5.482 2.284-2.786 1.689-2.948-1.053-.286-1.668 1.619-2.082 2.398-2.3 4.325-.367 3.257.078 7.482 1.006 9.546 1.052 2.34 1.4 1.046.607-2.26zM122.823 77.939c.286-.34.973-1.224 1.527-1.963.6-.802 1.689-1.47 2.7-1.66.932-.176 1.93-.604 2.22-.952.803-.968-1.853-1.502-2.9-.583-.445.39-1.305.859-1.91 1.043-1.242.379-3.108 2.746-3.108 3.943 0 .945.749 1.032 1.471.172z" style="fill:#000;stroke-width:.495152"/></svg>