<svg xmlns="http://www.w3.org/2000/svg" width="1280" height="853" viewBox="0 0 338.667 225.69"><path d="M.157.313h339.509v226.152H.157z" style="fill:#000;stroke:none;stroke-width:3.52382"/><path d="M211.716 194.769c-.492-.798-2.464-6.304-4.384-12.248-3.619-11.2-8.126-24.77-9.579-28.84-.753-2.11-1.642-4.729-1.975-5.82-.333-1.092-.812-2.58-1.064-3.308l-1.055-3.042c-.327-.946-.895-2.732-1.262-3.97a3483.9 3483.9 0 0 0-1.758-5.907c-.846-2.833-1.024-3.742-.788-4.026.64-.77 4.741-1.748 8.442-2.013 4.522-.323 5.712-.173 6.205.785.442.86 1.702 4.563 3.077 9.045.558 1.82 1.847 5.748 2.865 8.732a675.75 675.75 0 0 1 3.04 9.128 322.687 322.687 0 0 0 4.104 11.906c.426 1.164 1.452 3.954 2.28 6.199 1.187 3.222 1.468 4.272 1.334 4.985-.16.856-8.159 17.093-8.945 18.159-.218.296-.44.392-.537.235zm-45.688-2.891c-4.703-.339-11.476-1.952-16.61-3.958-1.642-.64-3.041-1.166-3.11-1.166-.467 0-5.537-2.511-8.3-4.112-11.487-6.654-20.249-15.27-26.337-25.9-1.507-2.631-4.324-8.326-5.206-10.527-1.454-3.625-2.644-8.484-2.19-8.938.141-.141 1.503-.687 3.026-1.211a330.744 330.744 0 0 0 6.253-2.253c1.917-.714 3.604-1.298 3.75-1.298.145 0 .34.387.435.86.815 4.092 3.625 11.396 6.03 15.676 1.901 3.383 5.562 8.318 7.83 10.556l1.582 1.56.441-1.03c.413-.965 2.853-7.768 3.738-10.424 1.256-3.766 4.91-13.279 5.54-14.42l.585-1.058 2.739-.166c1.506-.092 4.677-.181 7.047-.199 4.823-.036 4.872-.016 4.335 1.773a600.6 600.6 0 0 0-1.486 5.206c-.657 2.329-1.712 5.781-2.345 7.673-.633 1.892-2.419 7.217-3.97 11.833-1.55 4.616-2.892 8.855-2.982 9.42-.16.999-.131 1.047 1.006 1.683 1.12.626 7.146 3.27 8.807 3.865 2 .716 5.854 1.559 11.244 2.46 2.75.46 8.49.388 12.436-.154 6.47-.89 11.215-2.274 17.594-5.135 1.862-.834 2.45-.997 2.695-.746.36.37.967 1.95 1.694 4.415.496 1.681 1.4 4.2 2.402 6.697.279.695.426 1.396.327 1.557-.283.456-4.71 2.431-7.779 3.469-8.636 2.92-14.47 3.917-23.548 4.023-3.42.04-6.872.026-7.673-.032zm56.46-20.403a38.29 38.29 0 0 0-.538-1.522 5616.429 5616.429 0 0 0-4.457-11.805c-.11-.284.363-1.089 1.399-2.381 4.48-5.592 8.476-14.004 10.73-22.59.638-2.43 1.23-6.129 1.23-7.693 0-.772.089-1.459.198-1.525.109-.066 3.283-.209 7.054-.316l6.855-.196-.175 3.939c-.235 5.271-1.699 12.175-3.81 17.963-1.201 3.297-4.136 8.93-6.544 12.566-4.103 6.193-10.497 14.023-11.45 14.023-.191 0-.412-.209-.491-.463zm-38.865-14.797c-5.845-3.108-11.74-7.94-15.114-12.39-4.134-5.45-7.06-11.132-8.238-15.988-.278-1.15-.854-1.396-.866-.371-.005.412-.183.98-.396 1.263-.214.282-.389.9-.389 1.374 0 .783-.729 1.684-1.363 1.684-.412 0-1.018-.868-1.018-1.458 0-.862-.493-1.092-.948-.443-.611.872-1.823 1.075-6.947 1.16-4.758.078-4.86.068-5.334-.515-.265-.328-.66-.596-.878-.596-.761 0-4.296 7.653-5.697 12.335-.31 1.035-.72 2.014-.913 2.173-.193.16-1.363.315-2.602.344-2.86.066-4.59-.514-6.201-2.08-1.475-1.432-1.66-2.148-.963-3.733.298-.678.74-1.77.982-2.424.481-1.3 1.045-2.316 2.453-4.417 1.148-1.712 1.264-3.1.362-4.32-.338-.457-.633-1.209-.656-1.67-.042-.825-.063-.838-1.366-.83-1.558.009-4.106.823-7.408 2.366-2.88 1.346-5.848 2.464-13.758 5.182-1.6.55-4.34 1.554-6.086 2.23a404.186 404.186 0 0 1-6.482 2.435c-1.819.662-4.081 1.56-5.027 1.996-.946.435-2.85 1.208-4.233 1.717a1660.26 1660.26 0 0 0-3.837 1.416c-.727.27-1.83.496-2.451.5-1.856.015-2.133-.751-3.106-8.59-.368-2.967-.815-5.072-1.825-8.599-.567-1.98-.529-2.723.172-3.354.903-.812.868-.803 5.375-1.524 4.968-.796 6.865-1.11 9.905-1.635 2.888-.5 15.298-1.955 16.6-1.947.548.003 1.53.25 2.185.55 1.03.472 1.494.522 3.44.37 3.497-.274 14.043-2.14 15.8-2.795.405-.151 1.84-1.37 3.189-2.709l2.452-2.434 11.041-.166c6.073-.092 16.486-.181 23.139-.199l12.097-.032-.059-.992c-.054-.92-.01-.985.604-.894 1.968.29 7.426.309 8.697.03 1.11-.244 1.892-.24 3.572.023 1.183.185 2.287.44 2.455.566.167.127 5.679.223 12.248.215l11.943-.016.874.666.874.667h8.34c8.037 0 8.365.02 9.037.548.383.302.697.67.697.817 0 .565 3.038 3.121 3.717 3.127.372.003.824.155 1.006.337.24.24 2 .356 6.376.424l6.045.094 1.606-2.858c1.198-2.13 1.566-3.02 1.447-3.495-.22-.878.246-1.103 2.293-1.103 2.485 0 2.513.036 2.513 3.137 0 2.265.078 2.739.557 3.383.309.414.9.808 1.323.882.706.123.772.234.848 1.41.093 1.46-.225 2.003-1.077 1.84-.934-.178-1.996.346-2.094 1.034l-.086.61-12.198-.095c-11.05-.085-12.213-.054-12.362.334-.124.324-.408.398-1.16.305-.547-.068-1.036-.248-1.087-.4-.061-.184-2.618-.277-7.63-.277-7.455 0-7.55.007-8.643.63-.904.516-1.637.662-4.016.8-1.6.094-4.16.282-5.688.417-1.528.136-4.87.252-7.428.258-4.938.013-8.51.418-12.037 1.367-3.464.932-3.63.93-4.452-.047l-.72-.857-2.83.174c-3.963.243-6.204.636-6.598 1.156-.977 1.29.476 6.027 3.056 9.964 1.883 2.874 6.55 7.404 9.863 9.573 1.54 1.008 3.021 1.96 3.293 2.117.472.272.46.348-.253 1.713-.833 1.593-4.633 7.128-5.667 8.255-.761.83-1.169.88-2.289.285zm-30.525-26.982c.228-.276.356-1.056.343-2.11-.027-2.414-.397-2.744-3.076-2.744-1.852 0-2.16.072-2.724.636-.468.468-.603.837-.51 1.39.135.805 1.217 1.943 1.846 1.943.21 0 .383.194.383.431 0 .348-.186.402-.96.276-1.21-.196-1.891-.8-2.538-2.244-.757-1.692-1.373-1.44-1.478.606-.113 2.2-.004 2.254 4.597 2.254 3.169 0 3.81-.069 4.117-.438zm80.373-9.743c1.954-.43.164-.667-5.017-.667-4.256 0-5.54.076-5.54.33 0 .25 1.2.354 4.867.424 2.677.052 5.237.012 5.69-.087zm21.987-.535c0-.342-.868-.397-6.218-.397s-6.218.056-6.218.397c0 .342.867.397 6.218.397 5.35 0 6.218-.056 6.218-.397zm-21.232-3.77c.085-.258-1.152-.331-5.602-.331-3.542 0-5.71.098-5.71.259 0 .155 1.917.292 4.828.342 6.372.111 6.359.112 6.484-.27zm-31.024-.331c.105-.17-.79-.265-2.498-.265-1.597 0-2.661.106-2.661.265 0 .158 1.009.265 2.498.265 1.38 0 2.571-.119 2.661-.265zm9.725-.132c.039-.16-.965-.295-2.515-.34-2.201-.065-2.58-.015-2.58.34 0 .354.373.404 2.515.34 1.392-.042 2.544-.194 2.58-.34zm48.285-.728c-.065-.197-.574-.33-1.257-.33-.682 0-1.19.133-1.256.33-.079.236.28.33 1.256.33s1.336-.094 1.257-.33zm-150.93 2.35a6.147 6.147 0 0 1-.965-.724c-.554-.516-2.03-.766-6.028-1.02-.626-.04-.225-5.099.724-9.139 1.218-5.186 4.746-13.954 7.452-18.52.803-1.355 4.385-6.348 4.84-6.747.083-.073 1.05-1.264 2.15-2.646 2.01-2.53 2.597-3.12 6.96-7.025 6.294-5.63 11.818-9.46 17.748-12.301 5.721-2.742 14.572-5.411 20.443-6.165 2.314-.298 2.758-.296 2.876.012.17.444-.436 2.665-1.83 6.693a176.555 176.555 0 0 0-1.684 5.125c-.708 2.334-1.007 2.813-1.755 2.813-.855 0-8.293 2.613-11.433 4.017-5.179 2.315-11.93 7.162-16.846 12.092-5.06 5.076-9.203 11.435-11.611 17.824-.562 1.491-1.258 3.258-1.546 3.925-.661 1.531-1.528 4.676-2.176 7.892-.275 1.37-.63 2.62-.787 2.778-.477.48-5.986 1.422-6.531 1.116zm131.477-4.753c-.331-.184-1.433-1.143-2.449-2.131l-1.847-1.798-4.549.081-4.549.08-.332-1.802c-.345-1.868-.711-3.166-1.279-4.528a456 456 0 0 1-1.082-2.646c-1.699-4.183-5.912-11.15-8.402-13.89-3.971-4.374-9.33-8.717-14.644-11.87-2.864-1.7-10.66-5.055-12.997-5.594-1.667-.384-1.746-.49-3.252-4.365-1.232-3.168-1.248-3.29-.674-5.112.215-.68.65-2.11.969-3.175.318-1.066.75-2.003.961-2.084.356-.137 2.005.118 4.854.749 1.243.275 8.81 2.888 10.186 3.517l3.571 1.627c1.528.696 3.195 1.507 3.704 1.802.841.486 6.84 4.78 8.085 5.787 7.51 6.07 11.612 10.616 16.326 18.088 1.467 2.325 4.806 9.356 6.008 12.65 2.347 6.436 3.693 12.032 3.487 14.504-.046.556-1.184.616-2.095.11zm-90.366-4.35c-.058-.106 1.191-4.121 2.776-8.924a7496.65 7496.65 0 0 0 3.919-11.906 479.87 479.87 0 0 1 2.517-7.408 476.415 476.415 0 0 0 2.559-7.54c1.56-4.781 5.07-15.14 8.022-23.68 1.408-4.076 3.349-9.7 4.312-12.502.963-2.8 1.83-5.003 1.928-4.894.236.263 6.594 13.731 6.594 13.968 0 .102.427 1.13.948 2.286 1.108 2.454 1.114 2.395-.843 8.203-1.66 4.927-1.65 4.653-.29 8.333.65 1.754 2.5 7.342 4.112 12.418l6.25 19.672c1.824 5.744 3.317 10.52 3.317 10.615 0 .45-2.503.412-4.027-.062-1.454-.453-2.128-.487-6.435-.327l-4.81.18-.432-1.164c-.238-.64-1.251-3.605-2.252-6.588-1.001-2.984-2.068-6.064-2.37-6.847-.303-.782-.93-2.717-1.392-4.3-.462-1.582-.92-2.876-1.02-2.876-.14 0-6.622 19.215-7.63 22.622l-.236.793-7.705.06c-4.239.032-7.754-.028-7.812-.133z" style="opacity:.994;fill:red;stroke-width:.264583"/></svg>