<svg xmlns="http://www.w3.org/2000/svg" width="400" height="267.273"><g fill-rule="evenodd"><path fill="#fcf7f7" d="M191.009 49.738c-.46.1-1.716.921-2.791 1.826-1.074.904-2.052 1.645-2.171 1.645-.12 0-.444.226-.721.502-.276.277-1.148.711-1.938.966s-1.7.629-2.022.83c-2.201 1.378-10.64 2.112-15.056 1.309-6.391-1.161-5.596-1.517-12.646 5.669a21503.118 21503.118 0 0 1-24.52 24.933c-16.836 17.102-16.844 17.112-16.848 18.153-.002.932.38 1.356 7.821 8.67l12.447 12.235c4.156 4.085 4.696 4.53 5.348 4.393.497-.104 3.371-2.838 9.147-8.699 7.217-7.323 8.556-8.568 9.358-8.695.929-.146 1.028-.056 12.76 11.571 6.503 6.445 18.029 17.855 25.614 25.355 7.584 7.5 14.747 14.585 15.917 15.744 1.169 1.159 2.126 2.212 2.126 2.34 0 .127.098.232.218.232.119 0 .931.719 1.804 1.598 2.021 2.034 1.102 1.126 8.807 8.708 3.677 3.618 13.998 13.819 22.936 22.668 13.33 13.198 16.395 16.105 17.053 16.174.699.074 1.155-.255 3.523-2.54 1.496-1.443 3.472-3.346 4.39-4.229 1.952-1.875 8.199-7.897 12.834-12.371 2.655-2.564 3.279-3.311 3.412-4.092l.163-.956-10.731-10.542c-5.903-5.798-10.988-10.828-11.301-11.177-.312-.35-1.124-1.168-1.804-1.817-.679-.65-5.332-5.236-10.339-10.193a15260.113 15260.113 0 0 0-21.996-21.713c-7.091-6.985-13.537-13.362-14.325-14.171a447.688 447.688 0 0 0-1.634-1.672c-.763-.762-15.416-15.174-16.379-16.109a46.976 46.976 0 0 1-1.756-1.787c-.304-.34-3.553-3.554-7.219-7.141-3.667-3.587-7.113-7.075-7.659-7.75-1.4-1.734-3.474.731 16.457-19.552 7.664-7.799 7.602-6.434.587-12.967-1.737-1.618-3.773-3.548-4.525-4.29-2.956-2.917-3.433-3.254-4.341-3.058"/><path fill="#fc0404" d="M0 133.69v133.69h400V0H0v133.69m195.35-80.894c.752.742 2.788 2.672 4.525 4.29 7.015 6.533 7.077 5.168-.587 12.967-19.931 20.283-17.857 17.818-16.457 19.552.546.675 3.992 4.163 7.659 7.75 3.666 3.587 6.915 6.801 7.219 7.141.304.34 1.094 1.145 1.756 1.787.963.935 15.616 15.347 16.379 16.109.111.111.846.863 1.634 1.672.788.809 7.234 7.186 14.325 14.171 7.091 6.986 16.99 16.756 21.996 21.713 5.007 4.957 9.66 9.543 10.339 10.193.68.649 1.492 1.467 1.804 1.817.313.349 5.398 5.379 11.301 11.177l10.731 10.542-.163.956c-.133.781-.757 1.528-3.412 4.092a11216.309 11216.309 0 0 1-12.834 12.371c-.918.883-2.894 2.786-4.39 4.229-2.368 2.285-2.824 2.614-3.523 2.54-.658-.069-3.723-2.976-17.053-16.174-8.938-8.849-19.259-19.05-22.936-22.668-7.705-7.582-6.786-6.674-8.807-8.708-.873-.879-1.685-1.598-1.804-1.598-.12 0-.218-.105-.218-.232 0-.128-.957-1.181-2.126-2.34-1.17-1.159-8.333-8.244-15.917-15.744-7.585-7.5-19.111-18.91-25.614-25.355-11.732-11.627-11.831-11.717-12.76-11.571-.802.127-2.141 1.372-9.358 8.695-5.776 5.861-8.65 8.595-9.147 8.699-.652.137-1.192-.308-5.348-4.393l-12.447-12.235c-7.441-7.314-7.823-7.738-7.821-8.67.004-1.041.012-1.051 16.848-18.153a21503.118 21503.118 0 0 0 24.52-24.933c7.05-7.186 6.255-6.83 12.646-5.669 4.416.803 12.855.069 15.056-1.309.322-.201 1.232-.575 2.022-.83.79-.255 1.662-.689 1.938-.966.277-.276.601-.502.721-.502.119 0 1.097-.741 2.171-1.645 3.118-2.624 3.248-2.602 7.132 1.232"/></g></svg>